<svg width="15" height="18" viewBox="0 0 15 18" fill="none" xmlns="http://www.w3.org/2000/svg">
<g id="Group">
<path id="Vector" d="M2.57129 6.1997C2.57129 5.89033 2.80148 5.63965 3.08538 5.63965H9.25594C9.54002 5.63965 9.77022 5.89033 9.77022 6.1997C9.77022 6.50889 9.54002 6.75957 9.25594 6.75957H3.08538C2.80148 6.75957 2.57129 6.50888 2.57129 6.1997Z" fill="#722F37"/>
<path id="Vector_2" d="M2.57129 8.43975C2.57129 8.13056 2.80148 7.87988 3.08538 7.87988H9.25594C9.54002 7.87988 9.77022 8.13057 9.77022 8.43975C9.77022 8.74912 9.54002 8.9998 9.25594 8.9998H3.08538C2.80148 8.9998 2.57129 8.74912 2.57129 8.43975Z" fill="#722F37"/>
<path id="Vector_3" d="M2.57129 10.6802C2.57129 10.371 2.80148 10.1201 3.08538 10.1201H7.19921C7.48312 10.1201 7.7133 10.371 7.7133 10.6802C7.7133 10.9894 7.48311 11.2402 7.19921 11.2402H3.08538C2.80148 11.2402 2.57129 10.9894 2.57129 10.6802Z" fill="#722F37"/>
<path id="Vector_4" fill-rule="evenodd" clip-rule="evenodd" d="M12.6159 1.59824V14.0397H13.3563C14.1116 14.0397 14.6448 14.9007 14.2851 15.6652L13.9039 16.4758C13.6354 17.0468 13.0913 17.3996 12.504 17.3996H1.56759C0.713625 17.3996 0 16.6601 0 15.7196V1.59824C0 1.03405 0.426637 0.599609 0.926774 0.599609C1.09223 0.599609 1.25544 0.647421 1.39887 0.738918L3.3924 2.01071C3.56543 2.12114 3.78339 2.12114 3.95661 2.01071L5.50612 1.02221C6.00025 0.70684 6.61576 0.70684 7.10989 1.02221L8.65941 2.01071C8.83261 2.12114 9.05058 2.12114 9.22362 2.01071L11.2171 0.738918C11.3606 0.647421 11.5238 0.599609 11.6892 0.599609C12.1894 0.599609 12.616 1.03404 12.616 1.59824H12.6159ZM1.02852 15.7196V1.80079L2.87263 2.97716C3.36676 3.29234 3.98228 3.29234 4.47641 2.97716L6.02592 1.98866C6.19912 1.87822 6.41709 1.87822 6.59013 1.98866L8.13965 2.97716C8.63378 3.29234 9.24929 3.29234 9.74342 2.97716L11.5877 1.80079V14.0397H3.79914C3.21188 14.0397 2.66764 14.3925 2.39922 14.9635L1.78027 16.2797H1.56781C1.25842 16.2797 1.02877 16.0163 1.02877 15.7196H1.02852ZM12.504 16.2797H2.93522L3.314 15.474C3.40232 15.2861 3.58792 15.1596 3.79865 15.1596H13.356L13.3603 15.16C13.3623 15.1601 13.3644 15.1605 13.3644 15.1605L13.3663 15.1615L12.9882 15.9653C12.8999 16.1531 12.7145 16.2797 12.5037 16.2797L12.504 16.2797Z" fill="#722F37"/>
</g>
</svg>
